<?xml version="1.0" encoding="UTF-8"?>
<svg version="1.1" xmlns="http://www.w3.org/2000/svg" width="512" height="512">
<path d="M0 0 C14.33488849 13.58297387 22.79434776 33.10323039 23.82421875 52.75 C24.26734245 76.13112546 17.0159919 97.61481827 0.8203125 114.796875 C-16.77481941 131.42318082 -37.58030982 138.4088283 -61.515625 138.08984375 C-74.17582655 137.69259322 -86.14744508 133.56270791 -97.37890625 127.875 C-97.20977722 128.72278267 -97.20977722 128.72278267 -97.03723145 129.58769226 C-95.8636651 135.47522388 -94.69675735 141.36404737 -93.53369141 147.25366211 C-93.09887255 149.45094022 -92.66236227 151.64788432 -92.22412109 153.84448242 C-91.59416881 157.00352887 -90.97032727 160.16373012 -90.34765625 163.32421875 C-90.05236023 164.79479988 -90.05236023 164.79479988 -89.75109863 166.29508972 C-89.57091187 167.21566666 -89.3907251 168.13624359 -89.20507812 169.0847168 C-88.96525208 170.2938398 -88.96525208 170.2938398 -88.72058105 171.52738953 C-88.35257419 174.05592474 -88.16747683 176.32505152 -88.37890625 178.875 C-90.18374555 180.97202239 -91.86471503 182.64994947 -93.94140625 184.4375 C-94.52132324 184.95272217 -95.10124023 185.46794434 -95.69873047 185.9987793 C-104.22128349 193.48922457 -112.88311914 200.89995629 -122.62890625 206.75 C-126.78194703 209.26271254 -128.64558274 211.21669307 -130.37890625 215.875 C-133.57114284 218.00315773 -133.91537409 218.05016533 -137.453125 217.76953125 C-142.97679 217.6502513 -147.17322795 219.42389317 -152.19140625 221.5625 C-199.68998541 240.59806184 -255.10654212 238.17224877 -302.37890625 219.875 C-303.10335937 219.48441406 -303.8278125 219.09382812 -304.57421875 218.69140625 C-306.82697102 217.67230403 -308.36762181 217.80477628 -310.81640625 218 C-314.23638725 218.07324506 -315.27496266 217.93346827 -318.37890625 216.1875 C-320.37890625 213.875 -320.37890625 213.875 -320.87890625 211.25 C-321.12640625 210.074375 -321.12640625 210.074375 -321.37890625 208.875 C-323.03919553 208.19260588 -324.70757643 207.52988842 -326.37890625 206.875 C-328.5821832 205.46242653 -330.70045661 204.03211588 -332.81640625 202.5 C-333.4204126 202.06518311 -334.02441895 201.63036621 -334.64672852 201.18237305 C-340.89569066 196.61057256 -346.93491429 191.7130207 -352.61740112 186.44972229 C-354.35655647 184.848045 -354.35655647 184.848045 -356.2721405 183.46394348 C-359.24171234 181.03214338 -361.22857551 179.27098353 -361.65177917 175.34107971 C-361.33789788 172.24253723 -360.7819692 169.2858506 -360.12109375 166.2421875 C-359.90814163 165.10819519 -359.69518951 163.97420288 -359.4757843 162.80584717 C-358.77294131 159.11208894 -358.0144595 155.43226812 -357.25390625 151.75 C-356.75857557 149.21472097 -356.26681017 146.67874283 -355.77856445 144.14208984 C-354.79918606 139.07963065 -353.79916576 134.02193758 -352.78271484 128.96679688 C-351.54119187 122.75678505 -350.39555199 116.53490123 -349.3046875 110.296875 C-348.86218722 107.80196845 -348.41861754 105.30725392 -347.97491455 102.81256104 C-347.70616528 101.29117433 -347.44088966 99.76916921 -347.17938232 98.246521 C-344.97143884 85.50305303 -341.88043108 75.16378075 -331.37890625 66.875 C-328.59239925 65.15970658 -325.73666386 63.93495654 -322.69140625 62.75 C-321.39928223 62.22092041 -321.39928223 62.22092041 -320.08105469 61.68115234 C-316.85899903 60.37979078 -313.62153109 59.12426846 -310.37890625 57.875 C-309.6699823 57.60115479 -308.96105835 57.32730957 -308.23065186 57.04516602 C-275.91442649 44.56955602 -275.91442649 44.56955602 -264.37890625 40.875 C-263.85683594 41.57625 -263.33476562 42.2775 -262.796875 43 C-254.7158139 53.41621885 -245.68023475 61.27363317 -232.37890625 63.875 C-218.17273056 65.2467395 -207.40754594 61.75321062 -196.1484375 53.17578125 C-191.75391926 49.50681199 -188.50558757 45.66273077 -185.37890625 40.875 C-178.80337848 42.74983254 -172.43472855 44.90486347 -166.08984375 47.44921875 C-164.8458934 47.9422625 -164.8458934 47.9422625 -163.57681274 48.44526672 C-160.96761107 49.48045369 -158.36073791 50.52136129 -155.75390625 51.5625 C-153.96890187 52.27186664 -152.18374684 52.98085434 -150.3984375 53.68945312 C-146.05684306 55.41360077 -141.71732479 57.14287733 -137.37890625 58.875 C-137.38604393 57.96688316 -137.38604393 57.96688316 -137.39332581 57.04042053 C-137.39702682 56.23954514 -137.40072784 55.43866974 -137.40454102 54.61352539 C-137.4116787 53.42697105 -137.4116787 53.42697105 -137.41896057 52.21644592 C-137.07903611 32.34556285 -127.00860853 13.81546144 -113.69140625 -0.375 C-81.07648666 -31.47294659 -32.76337043 -29.26645898 0 0 Z " fill="#51ACF0" transform="translate(424.37890625,198.125)"/>
<path d="M0 0 C14.33488849 13.58297387 22.79434776 33.10323039 23.82421875 52.75 C24.26734245 76.13112546 17.0159919 97.61481827 0.8203125 114.796875 C-16.77481941 131.42318082 -37.58030982 138.4088283 -61.515625 138.08984375 C-74.45850883 137.68372325 -89.01184612 133.8859101 -99.37890625 125.875 C-100.07371094 125.3490625 -100.76851563 124.823125 -101.484375 124.28125 C-103.80634127 122.50768782 -106.09270016 120.69430485 -108.37890625 118.875 C-108.96671875 118.43671875 -109.55453125 117.9984375 -110.16015625 117.546875 C-126.78432222 104.52983938 -134.32387467 83.92649743 -136.96484375 63.65234375 C-139.35644625 41.83461147 -131.92218914 21.81527793 -118.37890625 4.875 C-105.11990625 -10.72117966 -85.15618712 -21.25973986 -64.671875 -23 C-39.58625764 -24.3675294 -18.64364595 -16.65376584 0 0 Z " fill="#2DD556" transform="translate(424.37890625,198.125)"/>
<path d="M0 0 C12.87734579 12.87734579 15.5376171 29.42824603 15.62109375 46.92578125 C15.62093262 47.67939941 15.62077148 48.43301758 15.62060547 49.20947266 C15.62496713 51.48286606 15.66137553 53.75429304 15.69921875 56.02734375 C15.80235858 69.16351033 13.66216537 81.26386151 7.125 92.875 C6.73957031 93.57882813 6.35414063 94.28265625 5.95703125 95.0078125 C-2.87687422 110.68728459 -15.97802288 127.03746665 -33.6640625 132.8125 C-41.99335488 134.55946769 -49.33697776 133.34160318 -56.75 129.25 C-59.93038821 127.10853861 -62.8368818 124.7386201 -65.75 122.25 C-66.40613281 121.73824219 -67.06226563 121.22648438 -67.73828125 120.69921875 C-79.22057791 111.42594109 -87.73530568 97.95357307 -93 84.3125 C-93.2465332 83.68045654 -93.49306641 83.04841309 -93.74707031 82.3972168 C-97.34410771 72.59242917 -98.08873752 62.81213966 -98 52.4375 C-97.99323242 51.2932959 -97.98646484 50.1490918 -97.97949219 48.97021484 C-97.76415451 31.35509204 -95.56520543 14.85593979 -83.09375 1.47265625 C-61.40979244 -18.62591762 -23.0369848 -14.65989942 0 0 Z " fill="#F88160" transform="translate(240.75,90.75)"/>
<path d="M0 0 C5.61 0 11.22 0 17 0 C20.24662627 14.94337569 23.00581085 29.93531156 25.625 45 C26.21887228 48.39708509 26.81365402 51.79401005 27.40853882 55.19091797 C27.77443902 57.28224807 28.13958956 59.37370955 28.5038147 61.46533203 C29.50033469 67.18299686 30.52308579 72.89481744 31.58023071 78.60160828 C32.63674281 84.63809055 32.66321003 88.50282351 29.078125 93.76171875 C27.82137757 95.41846037 26.54464593 97.06020199 25.25 98.6875 C24.61578125 99.51572266 23.9815625 100.34394531 23.328125 101.19726562 C21.57233354 103.48162347 19.79040391 105.74274345 18 108 C17.23171875 108.99644531 16.4634375 109.99289062 15.671875 111.01953125 C13.43963068 113.66380197 12.30035384 113.93992923 8.875 114.625 C2.74068603 113.63559452 0.62468163 109.80058169 -3 105 C-3.50885742 104.36191406 -4.01771484 103.72382813 -4.54199219 103.06640625 C-6.24823839 100.92186743 -7.90871954 98.74768914 -9.5625 96.5625 C-10.11188232 95.87164307 -10.66126465 95.18078613 -11.22729492 94.46899414 C-13.98103256 90.69884414 -15.37707953 88.14223505 -14.75854492 83.42529297 C-14.64614975 82.54690262 -14.53375458 81.66851227 -14.41795349 80.76350403 C-13.71287831 76.10155444 -12.94348544 71.45704566 -12.109375 66.81640625 C-11.92428879 65.77007019 -11.73920258 64.72373413 -11.54850769 63.64569092 C-10.95274726 60.28394995 -10.35154301 56.9232106 -9.75 53.5625 C-9.34035914 51.25874626 -8.93093581 48.95495384 -8.52172852 46.65112305 C-5.75243488 31.08748169 -2.9355292 15.53322737 0 0 Z " fill="#4E3E7D" transform="translate(191,264)"/>
<path d="M0 0 C3.4375 0.5625 3.4375 0.5625 5.875 2.125 C8.185595 5.7295282 8.25887925 7.31870722 7.4375 11.5625 C5.15422933 15.22372119 2.29888806 18.34397629 -0.5625 21.5625 C-1.56574423 22.72228116 -2.5669399 23.8838366 -3.56640625 25.046875 C-5.76873052 27.60526972 -7.98004801 30.15542341 -10.19921875 32.69921875 C-13.36025068 36.32492147 -16.49747495 39.97038136 -19.625 43.625 C-20.11145996 44.19323486 -20.59791992 44.76146973 -21.09912109 45.34692383 C-22.08361591 46.49713053 -23.06799065 47.64744002 -24.05224609 48.79785156 C-26.67879844 51.8668332 -29.30833447 54.9332571 -31.9375 58 C-32.88282568 59.10285328 -33.82813863 60.20571748 -34.7734375 61.30859375 C-35.23459961 61.83308105 -35.69576172 62.35756836 -36.17089844 62.89794922 C-37.61189082 64.57192569 -37.61189082 64.57192569 -38.93066406 66.52783203 C-42.40299107 71.28050504 -42.40299107 71.28050504 -45.61520386 72.0617218 C-49.81530869 72.14604666 -52.6684683 71.97824125 -55.95507812 69.20751953 C-57.02472431 68.1431486 -58.07028992 67.05416681 -59.09375 65.9453125 C-59.65574097 65.37295868 -60.21773193 64.80060486 -60.79675293 64.21090698 C-62.57427247 62.38990101 -64.3176811 60.5398036 -66.0625 58.6875 C-67.26357122 57.44982656 -68.46667911 56.21412611 -69.671875 54.98046875 C-79.43689902 44.91899062 -79.43689902 44.91899062 -79.875 40.1875 C-79.5625 36.5625 -79.5625 36.5625 -78 34.125 C-74.46800465 31.86090042 -72.70108566 31.8037593 -68.5625 32.5625 C-65.52352241 34.5198076 -63.0980776 37.00069228 -60.5625 39.5625 C-59.57891193 40.534651 -58.59448711 41.50595589 -57.609375 42.4765625 C-54.90620675 45.15166271 -52.2295065 47.85137023 -49.5625 50.5625 C-46.66375583 49.26985873 -44.79647474 47.99762432 -42.75 45.578125 C-42.23816162 44.97991943 -41.72632324 44.38171387 -41.19897461 43.76538086 C-40.65893799 43.12093018 -40.11890137 42.47647949 -39.5625 41.8125 C-38.70700562 40.8081189 -38.70700562 40.8081189 -37.83422852 39.78344727 C-36.65003442 38.39253844 -35.46849602 36.99936448 -34.28955078 35.60400391 C-32.19642346 33.12977 -30.08549565 30.67123059 -27.97290039 28.21362305 C-24.41044857 24.06894389 -20.86014431 19.91401016 -17.3203125 15.75 C-16.78543213 15.12230713 -16.25055176 14.49461426 -15.69946289 13.84790039 C-14.6838428 12.65589721 -13.66988188 11.46247741 -12.65795898 10.26733398 C-4.50821199 0.71182295 -4.50821199 0.71182295 0 0 Z " fill="#4D3F7B" transform="translate(407.5625,223.4375)"/>
<path d="M0 0 C3.43738281 0.54274465 5.16011343 1.06483811 7.5302124 3.61450195 C10.0253965 8.3230868 9.26647709 14.25281282 9.2265625 19.4375 C9.22993364 20.80843536 9.23478875 22.1793678 9.24105835 23.55029297 C9.24841594 26.41858474 9.2377621 29.28609609 9.21435547 32.15429688 C9.18586599 35.82333493 9.20227628 39.49054436 9.23221779 43.15951538 C9.25032233 45.98899002 9.24451881 48.81803406 9.23157883 51.64752197 C9.22664122 53.65548903 9.24177464 55.6634731 9.25723267 57.67138672 C9.12699772 67.79193179 9.12699772 67.79193179 6.20849609 70.890625 C2.91449443 72.9719429 1.38532247 73.35892135 -2.4375 72.5625 C-5.52916219 70.05687884 -7.22985926 68.54290384 -8.06568909 64.59642029 C-8.06665085 63.50039993 -8.06761261 62.40437958 -8.06860352 61.27514648 C-8.08113663 60.02712753 -8.09366974 58.77910858 -8.10658264 57.49327087 C-8.09431522 56.1400345 -8.08089534 54.78680816 -8.06640625 53.43359375 C-8.06723546 52.037845 -8.06969681 50.64209636 -8.07371521 49.24635315 C-8.07656862 46.32677683 -8.06191684 43.40796964 -8.03442383 40.48852539 C-8.00030838 36.75008323 -8.0063731 33.0130129 -8.0250864 29.27450466 C-8.03566369 26.39448142 -8.02671286 23.51477645 -8.01170158 20.63478279 C-8.00652667 19.2565105 -8.00699323 17.87820488 -8.01324654 16.49993706 C-8.01870763 14.57340051 -7.99545345 12.6468474 -7.97094727 10.72045898 C-7.96474869 9.62523422 -7.95855011 8.53000946 -7.9521637 7.40159607 C-7.06700908 2.51872013 -4.77901842 0.7820212 0 0 Z " fill="#2A7EE4" transform="translate(287.4375,343.4375)"/>
<path d="M0 0 C0.66 -0.02191406 1.32 -0.04382813 2 -0.06640625 C5.13507133 0.91942673 6.19863193 2.88151295 8 5.5625 C8.5146637 8.43919373 8.5146637 8.43919373 8.53344727 11.63452148 C8.5492836 12.83604355 8.56511993 14.03756561 8.58143616 15.27549744 C8.57399635 17.21000511 8.57399635 17.21000511 8.56640625 19.18359375 C8.57164574 20.52971323 8.57792341 21.87582903 8.58518982 23.22193909 C8.59557993 26.03884189 8.59105393 28.85523912 8.57641602 31.67211914 C8.5592373 35.27151659 8.58271589 38.86931625 8.61790562 42.46853542 C8.63993104 45.24740558 8.63842591 48.02589648 8.6301403 50.80482674 C8.6289279 52.77344559 8.64881391 54.74204115 8.66908264 56.71055603 C8.56550923 66.66596283 8.56550923 66.66596283 5.64819336 70.38305664 C3 72.5625 3 72.5625 0 73.1875 C-3.6759285 72.42168156 -5.39274113 71.24425198 -8 68.5625 C-9.17072023 65.27693489 -9.11145349 62.12691717 -9.08520508 58.6640625 C-9.07801956 57.47603027 -9.07083405 56.28799805 -9.06343079 55.06396484 C-9.04894394 53.78473145 -9.03445709 52.50549805 -9.01953125 51.1875 C-9.00540695 49.87088379 -8.99128265 48.55426758 -8.97673035 47.19775391 C-8.94482061 44.41366385 -8.90760098 41.62969238 -8.86791992 38.84570312 C-8.81847839 35.28143657 -8.79235299 31.71739446 -8.77148914 28.15286255 C-8.74621579 24.7474784 -8.69343227 21.34262564 -8.64453125 17.9375 C-8.64016556 16.6582666 -8.63579987 15.3790332 -8.63130188 14.06103516 C-8.60835556 12.87300293 -8.58540924 11.6849707 -8.56176758 10.4609375 C-8.54986893 9.41599121 -8.53797028 8.37104492 -8.52571106 7.29443359 C-7.63149078 2.64748851 -4.76094824 -0.00929873 0 0 Z " fill="#2A7DE4" transform="translate(112,343.4375)"/>
</svg>
